<svg width="30" height="30" viewBox="0 0 30 30" fill="none" xmlns="http://www.w3.org/2000/svg">
<path d="M25.8397 7.97168V4.21875C25.8397 3.7002 25.4208 3.28125 24.9022 3.28125H5.09755C4.579 3.28125 4.16005 3.7002 4.16005 4.21875V7.97168C3.67079 8.00098 3.28115 8.4082 3.28115 8.90625V12.7646C3.27927 13.4738 3.42285 14.1757 3.70302 14.8271C3.829 15.126 3.98427 15.4072 4.16005 15.6738V25.7812C4.16005 26.2969 4.579 26.7188 5.09755 26.7188H24.9022C25.4208 26.7188 25.8397 26.2998 25.8397 25.7812V15.6738C26.0183 15.4066 26.1713 15.1231 26.2968 14.8271C26.5751 14.1738 26.7186 13.4795 26.7186 12.7646V8.90625C26.7186 8.4082 26.329 8.00098 25.8397 7.97168ZM6.26943 5.39062H23.7304V7.96875H6.26943V5.39062ZM16.8749 24.6123H13.1249V21.5625H16.8749V24.6123ZM23.7421 24.6123H18.7499V20.625C18.7499 20.1064 18.331 19.6875 17.8124 19.6875H12.1874C11.6688 19.6875 11.2499 20.1064 11.2499 20.625V24.6123H6.26943V17.5166C6.35439 17.5576 6.44228 17.5986 6.5331 17.6338C7.18642 17.9092 7.88076 18.0469 8.5956 18.0469C9.31044 18.0469 10.0018 17.9092 10.6581 17.6338C11.0624 17.4639 11.4433 17.2471 11.7919 16.9863C11.7977 16.9834 11.8036 16.9834 11.8095 16.9863C12.1592 17.2482 12.54 17.4657 12.9433 17.6338C13.5966 17.9092 14.2909 18.0469 15.0058 18.0469C15.7206 18.0469 16.412 17.9092 17.0683 17.6338C17.4726 17.4639 17.8534 17.2471 18.202 16.9863C18.2079 16.9834 18.2138 16.9834 18.2196 16.9863C18.5693 17.2482 18.9502 17.4657 19.3534 17.6338C20.0067 17.9092 20.7011 18.0469 21.4159 18.0469C22.1308 18.0469 22.8222 17.9092 23.4784 17.6338C23.5663 17.5957 23.6542 17.5576 23.7421 17.5166V24.6123ZM24.6093 12.7646C24.6093 14.5166 23.1737 15.9375 21.4071 15.9375C20.2118 15.9375 19.1688 15.29 18.6181 14.3291C18.5331 14.1826 18.3808 14.0918 18.2108 14.0918H18.1933C18.0263 14.0918 17.871 14.1826 17.786 14.3291C17.505 14.8193 17.0991 15.2263 16.6097 15.5088C16.1204 15.7913 15.5649 15.9392 14.9999 15.9375C13.8075 15.9375 12.7675 15.293 12.2167 14.335C12.1288 14.1855 11.9706 14.0918 11.7977 14.0918C11.6249 14.0918 11.4638 14.1855 11.3788 14.335C11.0961 14.8233 10.6897 15.2285 10.2006 15.5098C9.71151 15.7911 9.15691 15.9387 8.59267 15.9375C6.82607 15.9375 5.39052 14.5166 5.39052 12.7646V10.0928C5.39052 10.084 5.39638 10.0781 5.40517 10.0781H24.5946C24.6034 10.0781 24.6093 10.084 24.6093 10.0928V12.7646Z" fill="#279D3A"/>
</svg>
