<svg width="60" height="60" viewBox="0 0 60 60" fill="none" xmlns="http://www.w3.org/2000/svg">
<rect width="60" height="60" rx="4" fill="#EAF2FF"/>
<path d="M42.7679 18.75H17.2321C16.6889 18.75 16.25 19.207 16.25 19.7727V40.2273C16.25 40.793 16.6889 41.25 17.2321 41.25H42.7679C43.3111 41.25 43.75 40.793 43.75 40.2273V19.7727C43.75 19.207 43.3111 18.75 42.7679 18.75ZM41.5402 38.9489H18.4598V21.0511H41.5402V38.9489Z" fill="#3374DD"/>
<path d="M33.3213 28.882H37.4921C37.536 28.882 37.5698 28.7702 37.5698 28.6335V27.1429C37.5698 27.0062 37.536 26.8944 37.4921 26.8944H33.3213C33.2773 26.8944 33.2435 27.0062 33.2435 27.1429V28.6335C33.2435 28.7702 33.2773 28.882 33.3213 28.882ZM33.4835 33.354H39.76C39.8918 33.354 40 33.2422 40 33.1056V31.6149C40 31.4783 39.8918 31.3665 39.76 31.3665H33.4835C33.3517 31.3665 33.2435 31.4783 33.2435 31.6149V33.1056C33.2435 33.2422 33.3517 33.354 33.4835 33.354V33.354ZM20.2647 35H21.7484C21.8904 35 22.0053 34.8975 22.0155 34.7671C22.1439 33.1988 23.5702 31.9565 25.3007 31.9565C27.0313 31.9565 28.4576 33.1988 28.586 34.7671C28.5962 34.8975 28.7111 35 28.853 35H30.3368C30.3735 35 30.4098 34.9932 30.4435 34.98C30.4772 34.9667 30.5077 34.9473 30.533 34.9229C30.5582 34.8985 30.5779 34.8696 30.5906 34.838C30.6034 34.8064 30.609 34.7728 30.6072 34.7391C30.5126 33.0839 29.5256 31.6429 28.0858 30.823C28.7207 30.1817 29.0716 29.3453 29.0693 28.4783C29.0693 26.5559 27.3828 25 25.3041 25C23.2255 25 21.5389 26.5559 21.5389 28.4783C21.5389 29.382 21.9107 30.2019 22.5224 30.823C21.7894 31.2403 21.1773 31.8145 20.7382 32.4965C20.2991 33.1784 20.0462 33.9479 20.001 34.7391C19.9875 34.882 20.1092 35 20.2647 35V35ZM25.3007 26.8634C26.264 26.8634 27.0482 27.587 27.0482 28.4783C27.0482 29.3696 26.264 30.0932 25.3007 30.0932C24.3375 30.0932 23.5533 29.3696 23.5533 28.4783C23.5533 27.587 24.3375 26.8634 25.3007 26.8634Z" fill="#3374DD"/>
</svg>
