<svg width="60" height="60" viewBox="0 0 60 60" fill="none" xmlns="http://www.w3.org/2000/svg">
<rect width="60" height="60" rx="4" fill="#EAF2FF"/>
<path d="M30.3249 15.6041C25.2189 15.5907 20.7256 18.2324 18.1575 22.2235C18.0436 22.4009 18.1709 22.6353 18.3818 22.6353H20.7356C20.8963 22.6353 21.047 22.565 21.1474 22.4411C21.3818 22.1565 21.6329 21.882 21.8974 21.6208C22.989 20.5326 24.2579 19.6755 25.6709 19.0795C27.1307 18.4634 28.6843 18.1487 30.2881 18.1487C31.8919 18.1487 33.4454 18.4601 34.9053 19.0795C36.3182 19.6755 37.5872 20.5326 38.6787 21.6208C39.7702 22.709 40.624 23.9779 41.2233 25.3875C41.8428 26.8474 42.1541 28.3976 42.1541 30.0014C42.1541 31.6052 41.8394 33.1554 41.2233 34.6152C40.6273 36.0248 39.7702 37.2938 38.6787 38.382C37.5872 39.4701 36.3182 40.3273 34.9053 40.9233C33.4443 41.5403 31.874 41.8569 30.2881 41.8541C28.6843 41.8541 27.1307 41.5393 25.6709 40.9233C24.2607 40.3279 22.9793 39.4649 21.8974 38.382C21.6329 38.1174 21.3852 37.8429 21.1474 37.5616C21.047 37.4378 20.893 37.3674 20.7356 37.3674H18.3818C18.1709 37.3674 18.0403 37.6018 18.1575 37.7793C20.7222 41.7603 25.1954 44.3987 30.2881 44.3987C38.1965 44.3987 44.6184 38.0337 44.6988 30.1487C44.7791 22.1364 38.3472 15.6241 30.3249 15.6041ZM26.0834 33.7514V31.2067H15.57C15.4227 31.2067 15.3021 31.0862 15.3021 30.9389V29.0639C15.3021 28.9166 15.4227 28.796 15.57 28.796H26.0834V26.2514C26.0834 26.027 26.3445 25.8998 26.5186 26.0404L31.2698 29.7904C31.3018 29.8155 31.3277 29.8475 31.3455 29.8841C31.3633 29.9206 31.3725 29.9607 31.3725 30.0014C31.3725 30.042 31.3633 30.0822 31.3455 30.1187C31.3277 30.1552 31.3018 30.1873 31.2698 30.2123L26.5186 33.9623C26.3445 34.0996 26.0834 33.9757 26.0834 33.7514Z" fill="#2E70DB"/>
</svg>
