<svg width="60" height="60" viewBox="0 0 60 60" fill="none" xmlns="http://www.w3.org/2000/svg">
<rect width="60" height="60" rx="4" fill="#EAF2FF"/>
<path d="M41.9201 37.3674H39.5663C39.4056 37.3674 39.2549 37.4378 39.1545 37.5616C38.9201 37.8462 38.669 38.1208 38.4045 38.382C37.3227 39.4649 36.0412 40.3279 34.6311 40.9233C33.1701 41.5403 31.5998 41.8569 30.0139 41.8541C28.4101 41.8541 26.8565 41.5393 25.3967 40.9233C23.9865 40.3279 22.7051 39.4649 21.6232 38.382C20.5395 37.3027 19.6753 36.0235 19.0786 34.6152C18.4592 33.1554 18.1478 31.6052 18.1478 30.0014C18.1478 28.3976 18.4625 26.8474 19.0786 25.3875C19.6746 23.9779 20.5317 22.709 21.6232 21.6208C22.7148 20.5326 23.9837 19.6755 25.3967 19.0795C26.8565 18.4634 28.4101 18.1487 30.0139 18.1487C31.6177 18.1487 33.1712 18.4601 34.6311 19.0795C36.044 19.6755 37.313 20.5326 38.4045 21.6208C38.669 21.8853 38.9168 22.1599 39.1545 22.4411C39.2549 22.565 39.409 22.6353 39.5663 22.6353H41.9201C42.1311 22.6353 42.2616 22.4009 42.1444 22.2235C39.5764 18.2324 35.0831 15.5907 29.977 15.6041C21.9547 15.6241 15.5228 22.1364 15.6031 30.1487C15.6835 38.0337 22.1054 44.3987 30.0139 44.3987C35.1065 44.3987 39.5797 41.7603 42.1444 37.7793C42.2583 37.6018 42.1311 37.3674 41.9201 37.3674ZM44.8967 29.7904L40.1456 26.0404C39.9681 25.8998 39.7103 26.027 39.7103 26.2514V28.796H29.1969C29.0496 28.796 28.929 28.9166 28.929 29.0639V30.9389C28.929 31.0862 29.0496 31.2067 29.1969 31.2067H39.7103V33.7514C39.7103 33.9757 39.9715 34.1029 40.1456 33.9623L44.8967 30.2123C44.9287 30.1873 44.9546 30.1552 44.9724 30.1187C44.9902 30.0822 44.9994 30.042 44.9994 30.0014C44.9994 29.9607 44.9902 29.9206 44.9724 29.8841C44.9546 29.8475 44.9287 29.8155 44.8967 29.7904Z" fill="#2E70DB"/>
</svg>
