<svg width="187" height="93" viewBox="0 0 187 93" fill="none" xmlns="http://www.w3.org/2000/svg">
<circle cx="91" cy="45" r="45" fill="#E0F5FA"/>
<path d="M129.987 66.2657L123.127 62.4359C124.506 58.3525 124.97 54.1125 124.586 49.9781L132.142 47.8355C133.57 47.431 134.398 45.9456 133.994 44.5188L132.421 38.9721C132.017 37.5443 130.531 36.7161 129.104 37.1206L121.548 39.2632C119.705 35.543 117.085 32.1773 113.768 29.4246L117.598 22.5644C118.321 21.2693 117.856 19.633 116.561 18.9095L111.527 16.0992C110.231 15.3757 108.596 15.8398 107.873 17.1349L104.043 23.9951C99.9593 22.6163 95.7193 22.1522 91.585 22.5365L89.4424 14.9798C89.0379 13.553 87.5525 12.7238 86.1257 13.1283L80.5789 14.7012C79.1512 15.1057 78.323 16.5901 78.7275 18.0179L80.8701 25.5756C77.1489 27.4184 73.7832 30.0385 71.0314 33.3552L64.1703 29.5255C62.8751 28.802 61.2389 29.266 60.5164 30.5612L57.706 35.5949C56.9825 36.89 57.4466 38.5263 58.7418 39.2498L65.6019 43.0795C64.2231 47.163 63.7591 51.403 64.1434 55.5373L56.5857 57.6799C55.1579 58.0844 54.3288 59.5698 54.7342 60.9966L56.3071 66.5434C56.7116 67.9701 58.197 68.7993 59.6238 68.3948L67.1815 66.2523C69.0243 69.9725 71.6444 73.3391 74.9611 76.0909L71.1313 82.951C70.4079 84.2462 70.8719 85.8825 72.1671 86.6059L77.2008 89.4163C78.4959 90.1398 80.1331 89.6757 80.8557 88.3805L84.6854 81.5204C88.7688 82.8992 93.0089 83.3632 97.1432 82.9789L99.2858 90.5356C99.6913 91.9634 101.176 92.7916 102.603 92.3871L108.149 90.8143C109.576 90.4098 110.405 88.9244 110.001 87.4976L107.858 79.9408C111.578 78.098 114.945 75.4779 117.697 72.1612L124.557 75.991C125.852 76.7145 127.488 76.2504 128.212 74.9552L131.022 69.9206C131.747 68.6245 131.284 66.9882 129.987 66.2657ZM86.7656 66.3724C79.2463 62.1746 76.5532 52.677 80.7509 45.1568C84.9487 37.6375 94.4472 34.9444 101.966 39.1422C109.486 43.3399 112.179 52.8384 107.981 60.3577C103.783 67.877 94.2848 70.5701 86.7656 66.3724Z" fill="#006279"/>
<path d="M101.874 92.9709C100.493 92.9709 99.2207 92.0601 98.8258 90.6679L96.7918 83.4926C92.7526 83.8145 88.7653 83.3485 84.9153 82.1014L81.2787 88.6147C80.4274 90.1375 78.4962 90.6881 76.9714 89.8368L71.9368 87.0264C70.4129 86.1752 69.8653 84.243 70.7146 82.7182L74.3503 76.2049C71.269 73.5819 68.7757 70.4285 66.9329 66.8245L59.7566 68.8586C58.0752 69.3313 56.3237 68.3551 55.8471 66.6766L54.2743 61.1299C54.0437 60.3161 54.1436 59.4609 54.5558 58.7221C54.968 57.9832 55.6434 57.45 56.4572 57.2194L63.6325 55.1863C63.3097 51.1509 63.7776 47.1588 65.0238 43.3079L58.5095 39.6722C56.9847 38.82 56.438 36.8878 57.2883 35.3639L60.0987 30.3303C60.949 28.8074 62.8821 28.2559 64.406 29.1091L70.9202 32.7457C73.5451 29.6625 76.6985 27.1692 80.3006 25.3274L78.2665 18.1521C78.0359 17.3373 78.1349 16.4832 78.548 15.7443C78.9602 15.0054 79.6357 14.4722 80.4485 14.2416L85.9943 12.6687C87.6786 12.198 89.4282 13.1722 89.9057 14.8517L91.9388 22.028C95.9742 21.7032 99.9663 22.1721 103.816 23.4183L107.453 16.9049C107.865 16.1661 108.54 15.6328 109.353 15.4022C110.164 15.1707 111.02 15.2696 111.761 15.6838L116.795 18.4941C118.319 19.3454 118.866 21.2795 118.016 22.8024L114.379 29.3157C117.462 31.9387 119.955 35.092 121.798 38.696L128.973 36.662C130.654 36.1931 132.406 37.1655 132.884 38.8449L134.456 44.3917C134.932 46.0711 133.953 47.8246 132.272 48.3021L125.097 50.3352C125.42 54.3677 124.953 58.3608 123.707 62.2127L130.22 65.8493C130.958 66.2615 131.492 66.936 131.723 67.7498C131.953 68.5636 131.854 69.4178 131.441 70.1566L128.63 75.1912C128.218 75.9301 127.543 76.4633 126.729 76.6939C125.917 76.9216 125.063 76.8246 124.322 76.4124L117.808 72.7758C115.184 75.858 112.031 78.3523 108.427 80.1942L110.462 87.3695C110.938 89.0499 109.96 90.8034 108.279 91.2799L102.732 92.8528C102.448 92.9316 102.158 92.9709 101.874 92.9709ZM97.1454 82.4991C97.3587 82.4991 97.5489 82.6394 97.6075 82.8479L99.7501 90.4046C100.082 91.5739 101.307 92.259 102.473 91.9246L108.02 90.3518C108.587 90.1914 109.056 89.8195 109.344 89.3055C109.631 88.7905 109.701 88.1957 109.54 87.6289L107.397 80.0721C107.335 79.8492 107.439 79.6129 107.647 79.5101C111.398 77.6519 114.655 75.0759 117.329 71.8534C117.477 71.6757 117.732 71.6286 117.933 71.741L124.794 75.5708C125.308 75.8581 125.901 75.9272 126.47 75.7668C127.037 75.6053 127.507 75.2335 127.794 74.7195L130.605 69.6849C130.893 69.1708 130.962 68.5751 130.801 68.0083C130.64 67.4414 130.268 66.9715 129.754 66.6843H129.753L122.893 62.8545C122.691 62.7421 122.598 62.5009 122.673 62.2809C124.013 58.3128 124.495 54.188 124.108 50.021C124.086 49.7914 124.232 49.5781 124.454 49.5147L132.011 47.373C133.181 47.0406 133.865 45.8194 133.532 44.6501L131.959 39.1034C131.628 37.9341 130.408 37.249 129.236 37.5834L121.68 39.726C121.452 39.7885 121.22 39.6837 121.117 39.4762C119.259 35.7252 116.683 32.4681 113.461 29.7951C113.282 29.6481 113.236 29.3935 113.348 29.1908L117.178 22.3306C117.77 21.2699 117.389 19.9219 116.326 19.3291L111.292 16.5187C110.778 16.2314 110.184 16.1632 109.616 16.3227C109.049 16.4832 108.579 16.8559 108.292 17.37L104.462 24.2311C104.35 24.4328 104.105 24.5241 103.888 24.4511C99.9221 23.1108 95.7964 22.6285 91.6285 23.0157C91.3854 23.0262 91.1846 22.8898 91.1221 22.6688L88.9805 15.1121C88.649 13.9418 87.422 13.2577 86.2566 13.5921L80.7099 15.1649C80.142 15.3254 79.6722 15.6972 79.3849 16.2112C79.0976 16.7253 79.0284 17.321 79.1899 17.8878L81.3325 25.4446C81.3949 25.6675 81.2902 25.9039 81.0826 26.0067C77.3336 27.8639 74.0755 30.4398 71.4016 33.6633C71.2546 33.843 71.0019 33.8891 70.7972 33.7757L63.9361 29.9459C62.8764 29.3531 61.5293 29.7346 60.9355 30.7982L58.1252 35.8318C57.5324 36.8926 57.9138 38.2396 58.9764 38.8325L65.8375 42.6613C66.0393 42.7737 66.1325 43.0148 66.0576 43.2349C64.7172 47.2011 64.2349 51.3258 64.6221 55.4957C64.6433 55.7253 64.4972 55.9386 64.2753 56.002L56.7185 58.1437C56.1517 58.3041 55.6809 58.676 55.3936 59.19C55.1063 59.705 55.0371 60.2997 55.1985 60.8666L56.7714 66.4133C56.9319 66.9802 57.3037 67.451 57.8177 67.7373C58.3308 68.0256 58.9274 68.0957 59.4933 67.9333L67.051 65.7917C67.2768 65.7292 67.5113 65.834 67.6131 66.0415C69.4723 69.7925 72.0472 73.0506 75.2688 75.7226C75.4475 75.8705 75.4937 76.1242 75.3812 76.3269L71.5524 83.1871C70.9606 84.2488 71.342 85.5958 72.4047 86.1886L77.4383 88.999C78.4971 89.5908 79.8451 89.2104 80.4389 88.1467L84.2687 81.2866C84.3811 81.0848 84.6232 80.9916 84.8423 81.0666C88.8066 82.4069 92.9323 82.8902 97.1012 82.502C97.1156 82.5001 97.131 82.4991 97.1454 82.4991ZM94.3427 68.8384C91.6361 68.8384 88.9603 68.1476 86.5314 66.7919C82.7833 64.6992 80.0729 61.273 78.9026 57.1425C77.7314 53.011 78.2387 48.673 80.3313 44.923C84.6521 37.1856 94.4619 34.4051 102.201 38.7229C105.949 40.8155 108.66 44.2427 109.83 48.3732C111.001 52.5047 110.493 56.8427 108.4 60.5928C106.308 64.3409 102.88 67.0513 98.7499 68.2216C97.2953 68.6337 95.8137 68.8384 94.3427 68.8384ZM94.3917 37.6478C89.0871 37.6478 83.9334 40.4408 81.1691 45.3919C79.2014 48.9161 78.7239 52.9957 79.8259 56.8793C80.928 60.7628 83.475 63.9854 87.0002 65.9521C90.5235 67.9189 94.605 68.3984 98.4877 67.2954C102.371 66.1943 105.594 63.6472 107.561 60.122C109.528 56.5977 110.006 52.5182 108.904 48.6346C107.803 44.751 105.256 41.5285 101.73 39.5607C99.4071 38.2646 96.8821 37.6478 94.3917 37.6478Z" fill="#006279"/>
<path d="M129.835 62.7193L122.974 58.8895C124.353 54.8061 124.817 50.5661 124.433 46.4317L131.99 44.2891C133.417 43.8846 134.246 42.3992 133.841 40.9724L132.268 35.4257C131.864 33.9979 130.378 33.1697 128.952 33.5742L121.395 35.7168C119.552 31.9966 116.932 28.6309 113.615 25.8782L117.445 19.018C118.168 17.7228 117.704 16.0866 116.409 15.3631L111.375 12.5528C110.079 11.8293 108.443 12.2933 107.72 13.5885L103.89 20.4487C99.8065 19.0699 95.5665 18.6058 91.4321 18.9902L89.2896 11.4334C88.8851 10.0066 87.3996 9.17746 85.9728 9.58196L80.4261 11.1548C78.9984 11.5593 78.1692 13.0437 78.5747 14.4715L80.7172 22.0292C76.997 23.872 73.6313 26.4921 70.8786 29.8088L64.0185 25.979C62.7233 25.2565 61.087 25.7196 60.3635 27.0158L57.5542 32.0494C56.8307 33.3446 57.2947 34.9808 58.5899 35.7043L65.45 39.5341C64.0713 43.6175 63.6072 47.8576 63.9915 51.9919L56.4338 54.1345C55.0061 54.539 54.1769 56.0244 54.5824 57.4512L56.1552 62.9979C56.5597 64.4257 58.0451 65.2539 59.4719 64.8494L67.0296 62.7068C68.8724 66.427 71.4925 69.7927 74.8092 72.5455L70.9805 79.4056C70.257 80.7008 70.721 82.337 72.0171 83.0605L77.0508 85.8709C78.3469 86.5944 79.9832 86.1303 80.7067 84.8351L84.5364 77.975C88.6199 79.3537 92.8599 79.8178 96.9942 79.4335L99.1369 86.9902C99.5423 88.418 101.027 89.2462 102.454 88.8417L108 87.2688C109.427 86.8643 110.256 85.3789 109.852 83.9521L107.709 76.3954C111.429 74.5526 114.796 71.9325 117.548 68.6158L124.408 72.4455C125.703 73.169 127.339 72.7049 128.063 71.4098L130.873 66.3761C131.594 65.079 131.13 63.4428 129.835 62.7193ZM86.6127 62.8269C79.0935 58.6292 76.4003 49.1306 80.5981 41.6114C84.7959 34.0921 94.2944 31.399 101.814 35.5967C109.333 39.7945 112.026 49.293 107.828 56.8123C103.63 64.3315 94.1311 67.0237 86.6127 62.8269Z" fill="#1288A4"/>
<path d="M101.721 89.4238C100.339 89.4238 99.067 88.5129 98.6711 87.1217L96.6381 79.9454C92.6046 80.2673 88.6115 79.8013 84.7606 78.5552L81.1249 85.0685C80.2736 86.5923 78.3414 87.1419 76.8166 86.2896L71.783 83.4793C70.2592 82.628 69.7115 80.6958 70.5618 79.171L74.1975 72.6577C71.1152 70.0319 68.6219 66.8794 66.7801 63.2764L59.6038 65.3114C58.7891 65.541 57.9349 65.4421 57.197 65.0289C56.4581 64.6167 55.9249 63.9413 55.6943 63.1285L54.1214 57.5827C53.8909 56.7689 53.9908 55.9138 54.403 55.1749C54.8151 54.436 55.4906 53.9028 56.3044 53.6713L63.4797 51.6372C63.1569 47.6047 63.6238 43.6126 64.87 39.7598L58.3567 36.1241C56.8319 35.2718 56.2852 33.3397 57.1355 31.8158L59.9459 26.7821C60.7962 25.2583 62.7284 24.7087 64.2532 25.561L70.7674 29.1966C73.3923 26.1144 76.5457 23.6211 80.1478 21.7792L78.1137 14.6039C77.8831 13.7892 77.9821 12.935 78.3952 12.1962C78.8074 11.4573 79.4829 10.9241 80.2967 10.6935L85.8425 9.12063C87.5248 8.64407 89.2764 9.62217 89.7539 11.3036L91.787 18.4798C95.8243 18.1551 99.8145 18.6239 103.664 19.8701L107.301 13.3558C107.713 12.6179 108.388 12.0847 109.203 11.8532C110.015 11.6216 110.871 11.7215 111.61 12.1347L116.644 14.945C118.169 15.7963 118.715 17.7285 117.865 19.2542L114.229 25.7666C117.313 28.3915 119.806 31.5449 121.648 35.1469L128.823 33.1129C130.505 32.6431 132.256 33.6164 132.734 35.2959L134.306 40.8426C134.782 42.5221 133.803 44.2755 132.124 44.7531L124.948 46.7861C125.271 50.8186 124.804 54.8108 123.558 58.6636L130.071 62.3003C130.809 62.7124 131.343 63.3869 131.574 64.2017C131.804 65.0155 131.705 65.8696 131.291 66.6094L128.481 71.6431C128.069 72.382 127.394 72.9152 126.58 73.1468C125.767 73.3755 124.913 73.2784 124.172 72.8643L117.66 69.2286C115.035 72.3109 111.882 74.8051 108.278 76.647L110.313 83.8223C110.789 85.5027 109.811 87.2562 108.131 87.7328L102.584 89.3056C102.295 89.3844 102.006 89.4238 101.721 89.4238ZM96.9916 78.952C97.2049 78.952 97.3952 79.0923 97.4547 79.3007L99.5964 86.8584C99.9288 88.0287 101.153 88.7118 102.32 88.3784L107.867 86.8056C108.434 86.6451 108.904 86.2733 109.191 85.7593C109.478 85.2443 109.548 84.6495 109.387 84.0827L107.244 76.5259C107.182 76.303 107.287 76.0667 107.494 75.9639C111.245 74.1057 114.502 71.5298 117.176 68.3072C117.324 68.1295 117.579 68.0824 117.781 68.1948L124.641 72.0236C125.155 72.3099 125.75 72.3829 126.317 72.2196C126.884 72.0592 127.354 71.6873 127.641 71.1733L130.452 66.1387C130.739 65.6246 130.809 65.0289 130.648 64.4621C130.487 63.8952 130.115 63.4254 129.601 63.1381H129.6L122.74 59.3083C122.538 59.1959 122.445 58.9547 122.52 58.7347C123.861 54.7656 124.342 50.6409 123.955 46.4748C123.934 46.2452 124.08 46.0319 124.302 45.9685L131.858 43.8269C133.029 43.4944 133.712 42.2732 133.379 41.1039L131.806 35.5572C131.475 34.3888 130.254 33.7019 129.084 34.0372L121.527 36.1788C121.3 36.2422 121.067 36.1356 120.965 35.929C119.107 32.18 116.532 28.9219 113.308 26.2479C113.13 26.1 113.083 25.8463 113.196 25.6436L117.024 18.7835C117.312 18.2694 117.382 17.6737 117.22 17.1069C117.06 16.54 116.688 16.0692 116.173 15.7819L111.14 12.9715C110.625 12.6842 110.032 12.6151 109.463 12.7755C108.896 12.936 108.426 13.3078 108.139 13.8219L104.309 20.6839C104.197 20.8857 103.953 20.976 103.736 20.9049C99.7693 19.5636 95.6456 19.0823 91.4757 19.4695C91.2335 19.4848 91.0318 19.3446 90.9693 19.1226L88.8277 11.5659C88.4952 10.3947 87.2693 9.71153 86.1038 10.0459L80.558 11.6187C79.9902 11.7792 79.5204 12.151 79.2331 12.665C78.9458 13.1791 78.8766 13.7748 79.038 14.3416L81.1797 21.8984C81.2421 22.1213 81.1374 22.3576 80.9298 22.4605C77.1808 24.3177 73.9227 26.8926 71.2488 30.1161C71.1018 30.2948 70.8491 30.3419 70.6444 30.2286L63.7833 26.3998C62.7235 25.8069 61.3755 26.1874 60.7827 27.252L57.9724 32.2856C57.3796 33.3473 57.761 34.6934 58.8236 35.2862L65.6838 39.115C65.8856 39.2275 65.9787 39.4686 65.9038 39.6887C64.5635 43.6577 64.0821 47.7825 64.4693 51.9485C64.4905 52.1782 64.3444 52.3915 64.1225 52.4549L56.5657 54.5975C55.9989 54.7579 55.5281 55.1297 55.2408 55.6438C54.9535 56.1588 54.8843 56.7535 55.0457 57.3204L56.6186 62.8662C56.779 63.434 57.1509 63.9038 57.6649 64.1911C58.1789 64.4793 58.7756 64.5505 59.3405 64.3871L66.8982 62.2445C67.125 62.1821 67.3575 62.2868 67.4603 62.4943C69.3185 66.2444 71.8935 69.5024 75.116 72.1764C75.2938 72.3243 75.3409 72.578 75.2284 72.7807L71.3996 79.6409C70.8078 80.7026 71.1892 82.0496 72.2519 82.6424L77.2845 85.4528C78.3462 86.0475 79.6933 85.6632 80.2861 84.6005L84.1149 77.7404C84.2264 77.5386 84.4704 77.4454 84.6885 77.5204C88.6557 78.8597 92.7814 79.342 96.9484 78.9548C96.9628 78.9529 96.9782 78.952 96.9916 78.952ZM94.1899 65.2922C91.4833 65.2922 88.8065 64.6014 86.3786 63.2457C82.6305 61.1531 79.9201 57.7259 78.7498 53.5954C77.5786 49.4649 78.0859 45.1258 80.1785 41.3768C84.4993 33.6394 94.31 30.8588 102.048 35.1767C105.796 37.2693 108.507 40.6965 109.678 44.827C110.849 48.9585 110.341 53.2975 108.248 57.0466C106.156 60.7947 102.729 63.5051 98.5981 64.6763C97.1425 65.0875 95.6609 65.2922 94.1899 65.2922ZM94.2389 34.1016C88.9334 34.1016 83.7806 36.8946 81.0163 41.8466C79.0486 45.3709 78.5711 49.4504 79.6731 53.334C80.7742 57.2176 83.3223 60.4401 86.8474 62.4069C90.3707 64.3746 94.4522 64.8531 98.3349 63.7501C102.218 62.65 105.44 60.1019 107.408 56.5767C109.375 53.0525 109.853 48.9729 108.751 45.0893C107.65 41.2058 105.103 37.9832 101.578 36.0155C99.2543 34.7184 96.7294 34.1016 94.2389 34.1016Z" fill="#006279"/>
<path d="M164.4 68.4718C168.621 65.9447 169.995 60.4721 167.468 56.2512C164.941 52.0303 159.468 50.6567 155.247 53.1837C151.026 55.7108 149.653 61.1834 152.18 65.4044C154.707 69.6253 160.178 70.9989 164.4 68.4718Z" fill="#FFD592"/>
<path d="M159.839 70.6497C159.037 70.6497 158.229 70.5514 157.432 70.3495C154.889 69.7109 152.746 68.1208 151.399 65.8702C150.051 63.6197 149.66 60.9798 150.3 58.4345C150.939 55.8911 152.529 53.7479 154.78 52.3997C157.03 51.0498 159.674 50.6604 162.214 51.3008C164.757 51.9394 166.902 53.5295 168.248 55.7801C171.028 60.4267 169.511 66.4688 164.868 69.2488V69.2506C163.322 70.1766 161.593 70.6497 159.839 70.6497ZM159.81 52.8291C158.411 52.8291 156.998 53.1948 155.713 53.9644C153.879 55.0633 152.584 56.808 152.063 58.8821C151.543 60.9543 151.861 63.1048 152.959 64.9387C155.225 68.723 160.143 69.9601 163.931 67.6932C163.931 67.6914 163.931 67.6914 163.931 67.6914C167.715 65.4263 168.953 60.5049 166.687 56.7189C165.19 54.2154 162.532 52.8291 159.81 52.8291Z" fill="#313149"/>
<path d="M185.169 23.227C185.528 21.797 184.66 20.3469 183.23 19.9885C181.8 19.6301 180.35 20.4979 179.991 21.9279C179.633 23.358 180.501 24.808 181.931 25.1664C183.361 25.5248 184.811 24.657 185.169 23.227Z" fill="#313149"/>
<path d="M182.588 26.1575C182.295 26.1575 182 26.1211 181.709 26.0483C180.781 25.8154 180.002 25.2369 179.511 24.4163C179.02 23.5958 178.876 22.6352 179.109 21.7073C179.342 20.7795 179.922 19.999 180.743 19.5096C181.563 19.0183 182.52 18.8764 183.452 19.1093C184.38 19.3422 185.158 19.9207 185.649 20.7412C186.143 21.5618 186.284 22.5224 186.052 23.4503C185.819 24.3763 185.242 25.1568 184.42 25.6481C183.859 25.9846 183.228 26.1575 182.588 26.1575ZM182.577 20.8177C182.262 20.8177 181.953 20.9014 181.676 21.0687C181.272 21.3089 180.988 21.6928 180.874 22.1494C180.759 22.6043 180.828 23.0791 181.07 23.4812C181.312 23.8833 181.696 24.1689 182.153 24.2835C182.606 24.3945 183.081 24.3272 183.484 24.087C183.886 23.8451 184.17 23.463 184.285 23.0082C184.285 23.0063 184.285 23.0064 184.285 23.0064C184.4 22.5497 184.33 22.0766 184.088 21.6746C183.846 21.2725 183.463 20.9869 183.006 20.8722C182.866 20.8359 182.722 20.8177 182.577 20.8177Z" fill="#313149"/>
<path d="M147.39 8.15613C148.174 5.03411 146.279 1.86843 143.157 1.08611C140.035 0.301965 136.869 2.19773 136.087 5.31974C135.302 8.44175 137.198 11.6074 140.32 12.3898C143.44 13.1721 146.606 11.2781 147.39 8.15613Z" fill="#E8565E"/>
<path d="M141.75 13.4781C141.199 13.4781 140.646 13.4108 140.098 13.2725C136.496 12.3683 134.298 8.70049 135.204 5.09817C136.11 1.49402 139.774 -0.701942 143.378 0.204097C146.979 1.1065 149.179 4.77431 148.274 8.37846C147.836 10.1232 146.744 11.5951 145.201 12.5193C144.139 13.1524 142.954 13.4781 141.75 13.4781ZM141.737 1.81969C139.536 1.81969 137.527 3.31155 136.969 5.54027C136.649 6.81563 136.845 8.13648 137.52 9.26448C138.193 10.3925 139.268 11.1894 140.542 11.5078C143.171 12.1664 145.847 10.5635 146.508 7.93453C147.166 5.30374 145.563 2.62747 142.933 1.96704C142.532 1.86698 142.13 1.81969 141.737 1.81969ZM147.39 8.15651H147.408H147.39Z" fill="#313149"/>
<path d="M18.3723 21.8381C14.8086 23.9717 13.6488 28.5923 15.7825 32.156C17.9161 35.7197 22.5366 36.8795 26.1003 34.7458C29.664 32.6122 30.8238 27.9917 28.6902 24.4279C26.5565 20.8642 21.9376 19.7045 18.3723 21.8381Z" fill="#FFD592"/>
<path d="M22.2234 19.9996C22.9008 19.9996 23.5828 20.0825 24.2556 20.253C26.4031 20.7922 28.2126 22.1348 29.3493 24.0349C30.4875 25.935 30.8178 28.1639 30.2771 30.3129C29.7379 32.4603 28.3954 34.2698 26.4952 35.4081C24.5951 36.5478 22.3632 36.8766 20.2188 36.3359C18.0713 35.7967 16.2603 34.4541 15.1236 32.554C12.7764 28.6308 14.0575 23.5295 17.9776 21.1824L17.9776 21.1808C19.2833 20.399 20.7426 19.9996 22.2234 19.9996ZM22.2479 35.0456C23.4292 35.0456 24.6228 34.7368 25.7072 34.087C27.2556 33.1592 28.3493 31.6861 28.7886 29.935C29.2279 28.1854 28.9591 26.3697 28.0329 24.8214C26.1189 21.6263 21.9669 20.5818 18.7687 22.4957C18.7687 22.4973 18.7687 22.4973 18.7687 22.4973C15.5737 24.4097 14.5291 28.5648 16.4415 31.7614C17.7057 33.8751 19.95 35.0456 22.2479 35.0456Z" fill="#313149"/>
<path d="M0.837429 60.0389C0.534821 61.2462 1.26755 62.4705 2.47491 62.7731C3.68228 63.0757 4.90653 62.343 5.20914 61.1356C5.51175 59.9283 4.77907 58.704 3.57171 58.4014C2.36434 58.0988 1.14004 58.8315 0.837429 60.0389Z" fill="#313149"/>
<path d="M3.01695 57.5648C3.26426 57.5648 3.51311 57.5956 3.75889 57.657C4.54229 57.8536 5.19975 58.3421 5.61449 59.0349C6.02923 59.7277 6.1506 60.5387 5.95398 61.3221C5.75736 62.1055 5.26733 62.7645 4.57456 63.1777C3.88178 63.5924 3.07378 63.7122 2.2873 63.5156C1.5039 63.319 0.846489 62.8306 0.431746 62.1378C0.0154664 61.445 -0.104361 60.634 0.0922583 59.8505C0.288877 59.0687 0.775822 58.4097 1.47013 57.9949C1.94325 57.7108 2.47625 57.5648 3.01695 57.5648ZM3.02619 62.0732C3.29193 62.0732 3.55306 62.0026 3.78654 61.8613C4.12755 61.6585 4.3672 61.3344 4.46397 60.9488C4.56074 60.5648 4.50237 60.1639 4.29807 59.8244C4.09377 59.4849 3.76966 59.2438 3.3841 59.147C3.00161 59.0533 2.6007 59.1101 2.25969 59.3129C1.92022 59.5172 1.68058 59.8398 1.58381 60.2238C1.58381 60.2253 1.58381 60.2253 1.58381 60.2253C1.48704 60.6109 1.54541 61.0103 1.74971 61.3498C1.95401 61.6892 2.27813 61.9304 2.66368 62.0272C2.78196 62.0579 2.9033 62.0732 3.02619 62.0732Z" fill="#313149"/>
<path d="M32.7342 72.7632C32.0721 75.3991 33.6727 78.0719 36.3087 78.7325C38.9446 79.3945 41.6173 77.7939 42.2779 75.158C42.9399 72.5221 41.3393 69.8493 38.7034 69.1888C36.069 68.5282 33.3962 70.1273 32.7342 72.7632Z" fill="#E8565E"/>
<path d="M37.4962 68.2698C37.9616 68.2698 38.4286 68.3266 38.891 68.4434C41.9325 69.2068 43.7881 72.3036 43.0231 75.345C42.2581 78.388 39.1644 80.2421 36.1214 79.4771C33.0815 78.7152 31.2244 75.6185 31.9878 72.5755C32.358 71.1024 33.2797 69.8597 34.5823 69.0793C35.4794 68.5448 36.4793 68.2698 37.4962 68.2698ZM37.507 78.113C39.3657 78.113 41.0615 76.8535 41.5331 74.9718C41.8034 73.895 41.6375 72.7798 41.0676 71.8274C40.4993 70.875 39.5914 70.2022 38.5162 69.9334C36.2965 69.3773 34.037 70.7306 33.4794 72.9503C32.9233 75.1715 34.2766 77.431 36.4978 77.9886C36.8357 78.0731 37.1752 78.113 37.507 78.113ZM32.7344 72.7629L32.719 72.7629L32.7344 72.7629Z" fill="#E8565E"/>
</svg>
