<svg width="30" height="30" viewBox="0 0 30 30" fill="none" xmlns="http://www.w3.org/2000/svg">
<path d="M15 1.875C7.75195 1.875 1.875 7.75195 1.875 15C1.875 22.248 7.75195 28.125 15 28.125C22.248 28.125 28.125 22.248 28.125 15C28.125 7.75195 22.248 1.875 15 1.875ZM15 25.8984C8.98242 25.8984 4.10156 21.0176 4.10156 15C4.10156 8.98242 8.98242 4.10156 15 4.10156C21.0176 4.10156 25.8984 8.98242 25.8984 15C25.8984 21.0176 21.0176 25.8984 15 25.8984Z" fill="#279D3A"/>
<path d="M8.4375 12.334C8.4375 12.7069 8.58566 13.0646 8.84938 13.3284C9.1131 13.5921 9.47079 13.7402 9.84375 13.7402C10.2167 13.7402 10.5744 13.5921 10.8381 13.3284C11.1018 13.0646 11.25 12.7069 11.25 12.334C11.25 11.961 11.1018 11.6033 10.8381 11.3396C10.5744 11.0759 10.2167 10.9277 9.84375 10.9277C9.47079 10.9277 9.1131 11.0759 8.84938 11.3396C8.58566 11.6033 8.4375 11.961 8.4375 12.334ZM19.4531 15.6152H18.0439C17.9209 15.6152 17.8154 15.709 17.8066 15.832C17.6982 17.2822 16.4795 18.4277 15 18.4277C13.5205 18.4277 12.3047 17.2822 12.1934 15.832C12.1846 15.709 12.0791 15.6152 11.9561 15.6152H10.5469C10.5151 15.6152 10.4836 15.6216 10.4544 15.6341C10.4252 15.6466 10.3988 15.665 10.3769 15.688C10.3549 15.711 10.3379 15.7382 10.3269 15.768C10.3158 15.7978 10.3109 15.8296 10.3125 15.8613C10.4414 18.3311 12.4951 20.3027 15 20.3027C17.5049 20.3027 19.5586 18.3311 19.6875 15.8613C19.6891 15.8296 19.6842 15.7978 19.6731 15.768C19.6621 15.7382 19.6451 15.711 19.6231 15.688C19.6012 15.665 19.5748 15.6466 19.5456 15.6341C19.5164 15.6216 19.4849 15.6152 19.4531 15.6152ZM18.75 12.334C18.75 12.7069 18.8982 13.0646 19.1619 13.3284C19.4256 13.5921 19.7833 13.7402 20.1562 13.7402C20.5292 13.7402 20.8869 13.5921 21.1506 13.3284C21.4143 13.0646 21.5625 12.7069 21.5625 12.334C21.5625 11.961 21.4143 11.6033 21.1506 11.3396C20.8869 11.0759 20.5292 10.9277 20.1562 10.9277C19.7833 10.9277 19.4256 11.0759 19.1619 11.3396C18.8982 11.6033 18.75 11.961 18.75 12.334Z" fill="#279D3A"/>
</svg>
