<svg width="60" height="60" viewBox="0 0 60 60" fill="none" xmlns="http://www.w3.org/2000/svg">
<rect width="60" height="60" rx="4" fill="#EAF2FF"/>
<path d="M37.1049 27.9621L33.6362 33.065L31.8683 30.4692C31.7679 30.32 31.6071 30.2348 31.4364 30.2348H29.5982C29.3806 30.2348 29.2533 30.4976 29.3806 30.6858L33.2009 36.3037C33.2502 36.3763 33.3151 36.4354 33.3902 36.4762C33.4653 36.517 33.5484 36.5382 33.6328 36.5382C33.7172 36.5382 33.8003 36.517 33.8754 36.4762C33.9505 36.4354 34.0154 36.3763 34.0647 36.3037L39.5893 28.1822C39.7165 27.994 39.5893 27.7312 39.3717 27.7312H37.5335C37.3661 27.7277 37.2054 27.8165 37.1049 27.9621ZM26.7857 29.4322H20.625C20.4777 29.4322 20.3571 29.5601 20.3571 29.7163V31.4209C20.3571 31.5771 20.4777 31.705 20.625 31.705H26.7857C26.933 31.705 27.0536 31.5771 27.0536 31.4209V29.7163C27.0536 29.5601 26.933 29.4322 26.7857 29.4322Z" fill="#3374DD"/>
<path d="M43.9286 19.7727H38.5714V17.7841C38.5714 17.6278 38.4509 17.5 38.3036 17.5H36.4286C36.2812 17.5 36.1607 17.6278 36.1607 17.7841V19.7727H31.2054V17.7841C31.2054 17.6278 31.0848 17.5 30.9375 17.5H29.0625C28.9152 17.5 28.7946 17.6278 28.7946 17.7841V19.7727H23.8393V17.7841C23.8393 17.6278 23.7188 17.5 23.5714 17.5H21.6964C21.5491 17.5 21.4286 17.6278 21.4286 17.7841V19.7727H16.0714C15.4788 19.7727 15 20.2805 15 20.9091V41.3636C15 41.9922 15.4788 42.5 16.0714 42.5H43.9286C44.5212 42.5 45 41.9922 45 41.3636V20.9091C45 20.2805 44.5212 19.7727 43.9286 19.7727ZM42.5893 39.9432H17.4107V22.3295H21.4286V24.3182C21.4286 24.4744 21.5491 24.6023 21.6964 24.6023H23.5714C23.7188 24.6023 23.8393 24.4744 23.8393 24.3182V22.3295H28.7946V24.3182C28.7946 24.4744 28.9152 24.6023 29.0625 24.6023H30.9375C31.0848 24.6023 31.2054 24.4744 31.2054 24.3182V22.3295H36.1607V24.3182C36.1607 24.4744 36.2812 24.6023 36.4286 24.6023H38.3036C38.4509 24.6023 38.5714 24.4744 38.5714 24.3182V22.3295H42.5893V39.9432Z" fill="#3374DD"/>
<path d="M26.7857 34.2614H20.625C20.4777 34.2614 20.3571 34.3892 20.3571 34.5455V36.25C20.3571 36.4062 20.4777 36.5341 20.625 36.5341H26.7857C26.933 36.5341 27.0536 36.4062 27.0536 36.25V34.5455C27.0536 34.3892 26.933 34.2614 26.7857 34.2614Z" fill="#3374DD"/>
</svg>
