<svg width="60" height="60" viewBox="0 0 60 60" fill="none" xmlns="http://www.w3.org/2000/svg">
<rect width="60" height="60" rx="4" fill="#EAF2FF"/>
<path d="M42.5 30H17.5" stroke="#2E70DB" stroke-width="2" stroke-linecap="round" stroke-linejoin="round"/>
<path d="M21.8125 21.3875L17.5 30V37.5C17.5 38.163 17.7634 38.7989 18.2322 39.2678C18.7011 39.7366 19.337 40 20 40H40C40.663 40 41.2989 39.7366 41.7678 39.2678C42.2366 38.7989 42.5 38.163 42.5 37.5V30L38.1875 21.3875C37.9805 20.971 37.6615 20.6205 37.2662 20.3753C36.8709 20.1302 36.4151 20.0002 35.95 20H24.05C23.5849 20.0002 23.1291 20.1302 22.7338 20.3753C22.3385 20.6205 22.0195 20.971 21.8125 21.3875V21.3875Z" stroke="#2E70DB" stroke-width="2" stroke-linecap="round" stroke-linejoin="round"/>
<path d="M22.5 35H22.5125" stroke="#2E70DB" stroke-width="2" stroke-linecap="round" stroke-linejoin="round"/>
<path d="M27.5 35H27.5125" stroke="#2E70DB" stroke-width="2" stroke-linecap="round" stroke-linejoin="round"/>
</svg>
