<svg width="60" height="60" viewBox="0 0 60 60" fill="none" xmlns="http://www.w3.org/2000/svg">
<rect width="60" height="60" rx="4" fill="#EAF2FF"/>
<path d="M40.7812 18.2812H22.7344C22.6055 18.2812 22.5 18.3867 22.5 18.5156V20.1562C22.5 20.2852 22.6055 20.3906 22.7344 20.3906H39.6094V37.2656C39.6094 37.3945 39.7148 37.5 39.8438 37.5H41.4844C41.6133 37.5 41.7188 37.3945 41.7188 37.2656V19.2188C41.7188 18.7002 41.2998 18.2812 40.7812 18.2812Z" fill="#2E70DB"/>
<path d="M37.0312 22.0312H19.2188C18.7002 22.0312 18.2812 22.4502 18.2812 22.9688V40.7812C18.2812 41.2998 18.7002 41.7188 19.2188 41.7188H37.0312C37.5498 41.7188 37.9688 41.2998 37.9688 40.7812V22.9688C37.9688 22.4502 37.5498 22.0312 37.0312 22.0312ZM35.8594 39.6094H20.3906V24.1406H35.8594V39.6094Z" fill="#2E70DB"/>
<rect x="23.3333" y="27.5" width="9.16667" height="1.66667" fill="#2E70DB"/>
<rect x="23.3333" y="30.833" width="9.16667" height="1.66667" fill="#2E70DB"/>
<rect x="23.3333" y="34.167" width="9.16667" height="1.66667" fill="#2E70DB"/>
</svg>
