<svg width="60" height="60" viewBox="0 0 60 60" fill="none" xmlns="http://www.w3.org/2000/svg">
<rect width="60" height="60" rx="4" fill="#EAF2FF"/>
<path d="M23.8636 29.6317H36.1364C36.277 29.6317 36.392 29.5112 36.392 29.3638V27.7567C36.392 27.6094 36.277 27.4888 36.1364 27.4888H23.8636C23.723 27.4888 23.608 27.6094 23.608 27.7567V29.3638C23.608 29.5112 23.723 29.6317 23.8636 29.6317Z" fill="#3374DD"/>
<path d="M40.2273 15H19.7727C19.207 15 18.75 15.4788 18.75 16.0714V43.9286C18.75 44.5212 19.207 45 19.7727 45H40.2273C40.793 45 41.25 44.5212 41.25 43.9286V16.0714C41.25 15.4788 40.793 15 40.2273 15ZM38.9489 42.5893H21.0511V35.8594H24.18C24.5508 36.9576 25.2028 37.9453 26.0689 38.6953C27.1715 39.6496 28.5682 40.1786 30 40.1786C31.4318 40.1786 32.8285 39.6529 33.9311 38.6953C34.7972 37.9453 35.4492 36.9576 35.82 35.8594H38.9489V42.5893ZM38.9489 33.75H34.206L34.0398 34.577C33.6563 36.5792 31.956 38.0357 30 38.0357C28.044 38.0357 26.3438 36.5792 25.957 34.577L25.7908 33.75H21.0511V17.4107H38.9489V33.75Z" fill="#3374DD"/>
<path d="M23.8636 24.2746H36.1364C36.277 24.2746 36.392 24.154 36.392 24.0067V22.3996C36.392 22.2522 36.277 22.1317 36.1364 22.1317H23.8636C23.723 22.1317 23.608 22.2522 23.608 22.3996V24.0067C23.608 24.154 23.723 24.2746 23.8636 24.2746Z" fill="#3374DD"/>
</svg>
