<svg width="60" height="60" viewBox="0 0 60 60" fill="none" xmlns="http://www.w3.org/2000/svg">
<rect width="60" height="60" rx="4" fill="#EAF2FF"/>
<path d="M30 33.75C32.0711 33.75 33.75 32.0711 33.75 30C33.75 27.9289 32.0711 26.25 30 26.25C27.9289 26.25 26.25 27.9289 26.25 30C26.25 32.0711 27.9289 33.75 30 33.75Z" stroke="#2E70DB" stroke-width="2" stroke-linecap="round" stroke-linejoin="round"/>
<path d="M39.25 33.75C39.0836 34.127 39.034 34.5452 39.1075 34.9507C39.181 35.3562 39.3743 35.7304 39.6625 36.025L39.7375 36.1C39.9699 36.3322 40.1543 36.6079 40.2801 36.9114C40.406 37.2149 40.4707 37.5402 40.4707 37.8688C40.4707 38.1973 40.406 38.5226 40.2801 38.8261C40.1543 39.1296 39.9699 39.4053 39.7375 39.6375C39.5053 39.8699 39.2296 40.0543 38.9261 40.1801C38.6226 40.306 38.2973 40.3707 37.9688 40.3707C37.6402 40.3707 37.3149 40.306 37.0114 40.1801C36.7079 40.0543 36.4322 39.8699 36.2 39.6375L36.125 39.5625C35.8304 39.2743 35.4562 39.081 35.0507 39.0075C34.6452 38.934 34.227 38.9836 33.85 39.15C33.4803 39.3085 33.165 39.5716 32.9429 39.9069C32.7208 40.2423 32.6016 40.6353 32.6 41.0375V41.25C32.6 41.913 32.3366 42.5489 31.8678 43.0178C31.3989 43.4866 30.763 43.75 30.1 43.75C29.437 43.75 28.8011 43.4866 28.3322 43.0178C27.8634 42.5489 27.6 41.913 27.6 41.25V41.1375C27.5903 40.7238 27.4564 40.3225 27.2156 39.9859C26.9749 39.6493 26.6384 39.3929 26.25 39.25C25.873 39.0836 25.4548 39.034 25.0493 39.1075C24.6438 39.181 24.2696 39.3743 23.975 39.6625L23.9 39.7375C23.6678 39.9699 23.3921 40.1543 23.0886 40.2801C22.7851 40.406 22.4598 40.4707 22.1312 40.4707C21.8027 40.4707 21.4774 40.406 21.1739 40.2801C20.8704 40.1543 20.5947 39.9699 20.3625 39.7375C20.1301 39.5053 19.9457 39.2296 19.8199 38.9261C19.694 38.6226 19.6293 38.2973 19.6293 37.9688C19.6293 37.6402 19.694 37.3149 19.8199 37.0114C19.9457 36.7079 20.1301 36.4322 20.3625 36.2L20.4375 36.125C20.7257 35.8304 20.919 35.4562 20.9925 35.0507C21.066 34.6452 21.0164 34.227 20.85 33.85C20.6915 33.4803 20.4284 33.165 20.0931 32.9429C19.7577 32.7208 19.3647 32.6016 18.9625 32.6H18.75C18.087 32.6 17.4511 32.3366 16.9822 31.8678C16.5134 31.3989 16.25 30.763 16.25 30.1C16.25 29.437 16.5134 28.8011 16.9822 28.3322C17.4511 27.8634 18.087 27.6 18.75 27.6H18.8625C19.2762 27.5903 19.6775 27.4564 20.0141 27.2156C20.3507 26.9749 20.6071 26.6384 20.75 26.25C20.9164 25.873 20.966 25.4548 20.8925 25.0493C20.819 24.6438 20.6257 24.2696 20.3375 23.975L20.2625 23.9C20.0301 23.6678 19.8457 23.3921 19.7199 23.0886C19.594 22.7851 19.5293 22.4598 19.5293 22.1312C19.5293 21.8027 19.594 21.4774 19.7199 21.1739C19.8457 20.8704 20.0301 20.5947 20.2625 20.3625C20.4947 20.1301 20.7704 19.9457 21.0739 19.8199C21.3774 19.694 21.7027 19.6293 22.0312 19.6293C22.3598 19.6293 22.6851 19.694 22.9886 19.8199C23.2921 19.9457 23.5678 20.1301 23.8 20.3625L23.875 20.4375C24.1696 20.7257 24.5438 20.919 24.9493 20.9925C25.3548 21.066 25.773 21.0164 26.15 20.85H26.25C26.6197 20.6915 26.935 20.4284 27.1571 20.0931C27.3792 19.7577 27.4984 19.3647 27.5 18.9625V18.75C27.5 18.087 27.7634 17.4511 28.2322 16.9822C28.7011 16.5134 29.337 16.25 30 16.25C30.663 16.25 31.2989 16.5134 31.7678 16.9822C32.2366 17.4511 32.5 18.087 32.5 18.75V18.8625C32.5016 19.2647 32.6208 19.6577 32.8429 19.9931C33.065 20.3284 33.3803 20.5915 33.75 20.75C34.127 20.9164 34.5452 20.966 34.9507 20.8925C35.3562 20.819 35.7304 20.6257 36.025 20.3375L36.1 20.2625C36.3322 20.0301 36.6079 19.8457 36.9114 19.7199C37.2149 19.594 37.5402 19.5293 37.8688 19.5293C38.1973 19.5293 38.5226 19.594 38.8261 19.7199C39.1296 19.8457 39.4053 20.0301 39.6375 20.2625C39.8699 20.4947 40.0543 20.7704 40.1801 21.0739C40.306 21.3774 40.3707 21.7027 40.3707 22.0312C40.3707 22.3598 40.306 22.6851 40.1801 22.9886C40.0543 23.2921 39.8699 23.5678 39.6375 23.8L39.5625 23.875C39.2743 24.1696 39.081 24.5438 39.0075 24.9493C38.934 25.3548 38.9836 25.773 39.15 26.15V26.25C39.3085 26.6197 39.5716 26.935 39.9069 27.1571C40.2423 27.3792 40.6353 27.4984 41.0375 27.5H41.25C41.913 27.5 42.5489 27.7634 43.0178 28.2322C43.4866 28.7011 43.75 29.337 43.75 30C43.75 30.663 43.4866 31.2989 43.0178 31.7678C42.5489 32.2366 41.913 32.5 41.25 32.5H41.1375C40.7353 32.5016 40.3423 32.6208 40.0069 32.8429C39.6716 33.065 39.4085 33.3803 39.25 33.75V33.75Z" stroke="#2E70DB" stroke-width="2" stroke-linecap="round" stroke-linejoin="round"/>
</svg>
